<svg width="184" height="65" viewBox="0 0 184 65" fill="none" xmlns="http://www.w3.org/2000/svg">
<path d="M10.4688 17.5625L17.5195 37.8555L24.5508 17.5625H29.7266L19.5898 46H15.4102L5.29297 17.5625H10.4688ZM7.63672 17.5625L8.59375 38.6367V46H2.44141V17.5625H7.63672ZM32.5781 17.5625V46H26.4258V38.6367L27.3633 17.5625H32.5781ZM48.9648 24.8672H55.2734L46.8359 49.1641C46.6536 49.6849 46.4062 50.2513 46.0938 50.8633C45.7812 51.4883 45.3646 52.0807 44.8438 52.6406C44.3359 53.2005 43.6849 53.6562 42.8906 54.0078C42.1094 54.3594 41.1523 54.5352 40.0195 54.5352C39.6549 54.5352 39.3359 54.5221 39.0625 54.4961C38.8021 54.4701 38.5482 54.4245 38.3008 54.3594C38.0534 54.3073 37.7734 54.2422 37.4609 54.1641V49.7109C37.6042 49.7109 37.7474 49.7109 37.8906 49.7109C38.0469 49.724 38.1901 49.7305 38.3203 49.7305C39.4271 49.7305 40.2344 49.5612 40.7422 49.2227C41.25 48.8841 41.6341 48.3438 41.8945 47.6016L43.4375 43.5586L48.9648 24.8672ZM45.8398 39.8086L46.6406 46.3125L42.6562 46.5859L35.0977 24.8672H41.4453L45.8398 39.8086ZM106.543 35.2383C106.543 33.181 106.934 31.3451 107.715 29.7305C108.496 28.1029 109.635 26.8203 111.133 25.8828C112.63 24.9453 114.447 24.4766 116.582 24.4766C118.743 24.4766 120.573 24.9453 122.07 25.8828C123.581 26.8203 124.72 28.1029 125.488 29.7305C126.27 31.3451 126.66 33.181 126.66 35.2383V35.6484C126.66 37.6927 126.27 39.5286 125.488 41.1562C124.72 42.7839 123.587 44.0664 122.09 45.0039C120.592 45.9284 118.77 46.3906 116.621 46.3906C114.473 46.3906 112.643 45.9284 111.133 45.0039C109.635 44.0664 108.496 42.7839 107.715 41.1562C106.934 39.5286 106.543 37.6927 106.543 35.6484V35.2383ZM112.461 35.6484C112.461 36.7552 112.591 37.7643 112.852 38.6758C113.125 39.5872 113.561 40.3099 114.16 40.8438C114.772 41.3776 115.592 41.6445 116.621 41.6445C117.637 41.6445 118.444 41.3776 119.043 40.8438C119.655 40.3099 120.091 39.5872 120.352 38.6758C120.625 37.7643 120.762 36.7552 120.762 35.6484V35.2383C120.762 34.1576 120.625 33.1615 120.352 32.25C120.091 31.3255 119.655 30.5898 119.043 30.043C118.444 29.4961 117.624 29.2227 116.582 29.2227C115.566 29.2227 114.753 29.4961 114.141 30.043C113.542 30.5898 113.112 31.3255 112.852 32.25C112.591 33.1615 112.461 34.1576 112.461 35.2383V35.6484ZM136.25 46H130.332V16H136.25V46ZM146.992 46H141.074V24.8672H146.992V46ZM140.723 19.418C140.723 18.5326 141.022 17.8099 141.621 17.25C142.22 16.6771 143.021 16.3906 144.023 16.3906C145.026 16.3906 145.82 16.6771 146.406 17.25C147.005 17.8099 147.305 18.5326 147.305 19.418C147.305 20.2904 147.005 21.013 146.406 21.5859C145.82 22.1589 145.026 22.4453 144.023 22.4453C143.021 22.4453 142.22 22.1589 141.621 21.5859C141.022 21.013 140.723 20.2904 140.723 19.418ZM150.645 35.2383C150.645 33.181 151.035 31.3451 151.816 29.7305C152.598 28.1029 153.737 26.8203 155.234 25.8828C156.732 24.9453 158.548 24.4766 160.684 24.4766C162.845 24.4766 164.674 24.9453 166.172 25.8828C167.682 26.8203 168.822 28.1029 169.59 29.7305C170.371 31.3451 170.762 33.181 170.762 35.2383V35.6484C170.762 37.6927 170.371 39.5286 169.59 41.1562C168.822 42.7839 167.689 44.0664 166.191 45.0039C164.694 45.9284 162.871 46.3906 160.723 46.3906C158.574 46.3906 156.745 45.9284 155.234 45.0039C153.737 44.0664 152.598 42.7839 151.816 41.1562C151.035 39.5286 150.645 37.6927 150.645 35.6484V35.2383ZM156.562 35.6484C156.562 36.7552 156.693 37.7643 156.953 38.6758C157.227 39.5872 157.663 40.3099 158.262 40.8438C158.874 41.3776 159.694 41.6445 160.723 41.6445C161.738 41.6445 162.546 41.3776 163.145 40.8438C163.757 40.3099 164.193 39.5872 164.453 38.6758C164.727 37.7643 164.863 36.7552 164.863 35.6484V35.2383C164.863 34.1576 164.727 33.1615 164.453 32.25C164.193 31.3255 163.757 30.5898 163.145 30.043C162.546 29.4961 161.725 29.2227 160.684 29.2227C159.668 29.2227 158.854 29.4961 158.242 30.043C157.643 30.5898 157.214 31.3255 156.953 32.25C156.693 33.1615 156.562 34.1576 156.562 35.2383V35.6484Z" fill="white"/>
<path d="M60 5C60 2.23858 62.2386 0 65 0H97C99.7614 0 102 2.23858 102 5V60C102 62.7614 99.7614 65 97 65H65C62.2386 65 60 62.7614 60 60V5Z" fill="#82D5FF"/>
<path d="M78.5938 45.5H72.4414V17.0625H78.5938V45.5ZM89.7461 33.9961H76.9531V29.0547H89.7461V33.9961ZM91.0938 22.0234H76.9531V17.0625H91.0938V22.0234Z" fill="#094060"/>
</svg>
